<svg xmlns="http://www.w3.org/2000/svg" xmlns:xlink="http://www.w3.org/1999/xlink" version="1.1" width="878.1185913085938" height="1191.1798095703125" xml:space="preserve" stroke="black" fill="none" stroke-linecap="round" stroke-linejoin="round" style=""><rect id="backgroundrect" width="100%" height="100%" x="0" y="0" fill="none" stroke="#1aeb1a" class="" style="" opacity="0.03" stroke-opacity="1"/>
<desc xmlns:shape="http://adobe.com/products/shape">
</desc>



















































































<g class="currentLayer" style=""><title>Layer 1</title><path d="M332.0 676.4 C332.0 670.4 332.0 664.9 332.0 659.4 C332.0 649.8 333.0 648.3 342.6 647.5 C353.3 646.5 364.1 645.6 374.8 645.5 C391.1 645.3 407.0 648.9 422.8 652.7 C425.1 653.2 427.3 653.8 429.5 654.5 C430.8 654.9 431.9 655.7 433.0 656.3 C432.1 657.5 431.3 658.8 430.2 659.6 C420.1 666.8 409.5 671.3 396.6 668.6 C393.0 667.8 388.6 668.4 385.3 669.9 C380.6 672.1 379.4 679.0 382.2 685.0 C386.1 693.4 390.6 701.5 394.9 709.7 C395.2 710.3 395.7 710.8 396.1 711.4 C396.7 710.6 397.5 709.8 398.0 708.9 C402.0 700.8 406.0 692.6 410.0 684.4 C410.5 683.4 411.2 682.4 411.9 681.4 C412.9 682.3 414.3 683.1 414.9 684.3 C419.7 693.4 423.1 702.8 423.1 713.4 C423.0 726.9 423.6 740.5 424.0 754.0 C424.3 764.0 424.7 774.0 425.0 784.1 C425.4 801.3 425.6 818.5 426.0 835.7 C426.3 846.2 426.6 856.7 427.0 867.2 C427.6 882.1 428.0 897.0 429.1 911.9 C430.2 926.3 430.7 940.9 435.1 954.9 C435.6 956.5 436.7 958.6 438.1 959.2 C439.0 959.5 441.1 957.8 442.2 956.6 C449.6 948.9 452.1 939.6 452.1 929.2 C451.9 850.2 452.0 771.2 452.0 692.2 C452.0 690.6 452.3 689.0 452.5 687.4 C453.0 689.0 453.7 690.6 454.0 692.3 C455.0 700.0 456.6 707.8 456.9 715.6 C457.9 737.6 458.3 759.7 459.0 781.7 C459.3 793.1 459.5 804.5 460.0 815.8 C460.5 826.0 461.6 836.2 461.8 846.5 C461.9 850.3 464.9 850.8 466.6 851.2 C473.8 853.1 477.6 858.3 481.0 864.1 C482.0 865.8 482.0 867.3 479.3 867.4 C477.3 867.6 475.3 868.0 473.3 868.4 C469.1 869.3 465.5 873.5 466.1 877.8 C467.8 889.2 469.6 900.6 472.1 911.9 C476.3 930.7 486.9 946.5 496.7 962.6 C496.9 962.9 497.3 963.1 497.4 963.3 C499.0 966.5 500.5 969.7 502.0 972.9 C499.0 972.8 496.0 972.5 493.1 972.4 C475.0 972.0 457.0 971.8 439.0 971.4 C426.8 971.1 414.6 970.7 402.4 970.4 C388.2 970.0 374.0 969.7 359.8 969.4 C342.5 969.0 325.1 968.7 307.7 968.4 C292.4 968.1 277.0 967.4 261.6 967.5 C238.8 967.5 215.9 968.0 193.1 968.4 C175.9 968.7 158.7 969.1 141.5 969.4 C124.4 969.7 107.4 970.0 90.4 970.4 C80.5 970.6 70.6 970.6 60.8 971.5 C47.5 972.8 44.8 975.9 43.0 989.2 C42.8 991.3 43.0 993.5 43.0 995.7 C42.7 1020.5 42.4 1045.4 42.0 1070.2 C41.9 1075.9 41.4 1081.6 40.9 1087.3 C40.8 1088.7 40.1 1089.9 39.6 1091.3 C39.4 1090.1 39.0 1089.0 39.0 1087.8 C38.7 1064.4 38.4 1041.1 38.0 1017.7 C37.7 1000.0 37.4 982.3 37.0 964.6 C36.7 950.3 36.4 935.9 36.0 921.5 C35.7 912.8 35.3 904.2 35.0 895.5 C35.0 894.8 35.2 894.2 35.3 893.6 C35.5 894.2 35.8 894.8 36.0 895.4 C39.1 906.6 42.0 917.9 45.2 929.1 C47.0 935.0 48.8 940.9 51.1 946.7 C52.1 949.1 54.3 951.2 55.9 953.4 C57.6 951.2 60.2 949.2 60.8 946.8 C63.5 936.5 65.6 926.2 65.1 915.5 C64.7 907.7 65.1 899.8 65.0 892.0 C64.7 873.8 64.4 855.6 64.0 837.4 C63.7 825.2 63.3 813.0 63.0 800.8 C62.7 788.9 62.4 777.1 62.0 765.2 C61.9 762.3 61.2 759.5 61.1 756.6 C61.0 755.9 61.7 755.1 62.1 754.4 C62.7 754.9 63.7 755.2 63.9 755.9 C66.0 763.3 69.1 770.7 69.8 778.4 C71.2 794.2 71.4 810.1 72.0 826.0 C72.4 838.2 72.7 850.4 73.0 862.6 C73.3 873.3 73.4 884.0 74.1 894.7 C74.8 907.8 75.5 920.9 77.3 933.9 C77.8 937.2 81.9 940.9 85.2 942.7 C88.6 944.7 93.1 945.1 97.1 945.3 C112.8 945.9 128.5 946.0 144.2 946.4 C155.4 946.7 166.6 947.0 177.8 947.4 C187.6 947.7 197.5 948.0 207.4 948.4 C213.9 948.7 220.4 949.2 226.9 949.4 C233.7 949.5 238.7 945.3 240.0 938.5 C241.1 932.8 242.0 927.0 243.0 921.3 C243.1 920.7 243.2 920.0 243.4 919.5 C244.1 918.4 244.8 917.4 245.5 916.4 C246.0 917.6 246.6 918.7 247.0 919.8 C248.7 925.8 249.6 932.1 252.2 937.7 C255.7 945.3 262.6 949.3 271.0 949.3 C314.4 949.5 357.7 949.4 401.0 949.4 C407.8 949.4 413.2 944.2 413.0 937.6 C412.4 924.0 411.8 910.4 411.0 896.9 C410.2 885.1 409.3 873.4 407.9 861.7 C406.1 846.6 406.2 831.1 400.9 816.6 C399.3 812.4 396.4 808.8 393.9 805.0 C393.7 804.7 391.9 805.1 391.3 805.7 C385.5 811.0 382.7 817.9 381.0 825.4 C379.2 833.9 376.7 842.0 369.3 847.5 C368.5 848.2 367.5 848.8 366.6 849.4 C366.1 848.1 365.2 846.9 365.1 845.6 C364.6 840.6 364.1 835.6 364.0 830.5 C363.8 818.8 357.4 810.5 349.2 803.2 C348.4 802.5 346.8 802.6 345.6 802.4 C345.4 803.5 345.0 804.5 345.0 805.6 C345.0 817.1 344.9 828.6 345.0 840.1 C345.1 843.0 344.1 844.5 341.4 845.6 C338.6 846.7 336.6 847.3 336.0 843.3 C334.8 835.8 332.2 828.4 332.2 820.9 C331.8 772.9 332.0 724.9 332.0 676.4 M402.0 736.9 C399.4 730.7 391.2 726.1 385.2 727.5 C384.6 727.6 384.1 728.8 384.0 729.5 C383.3 738.1 382.7 746.6 382.0 755.2 C381.4 761.4 380.7 767.6 380.0 773.8 C379.6 777.8 380.2 781.9 383.9 783.4 C386.3 784.4 390.6 783.7 392.4 782.1 C395.9 779.0 398.9 774.9 400.9 770.7 C405.8 760.1 403.7 748.9 402.0 736.9 M364.5 735.4 C362.4 731.0 358.7 729.0 354.0 728.3 C351.2 727.9 349.4 728.2 349.0 731.4 C348.3 736.3 347.6 741.2 346.9 746.0 C345.6 755.3 343.9 764.6 343.1 773.9 C342.6 781.4 349.8 785.7 355.9 781.7 C358.7 779.8 360.8 776.2 361.8 772.9 C363.8 766.5 364.9 759.8 365.9 753.1 C366.8 747.4 368.3 741.5 364.5 735.4 " fill="#9ca890" stroke="#9ca890" id="svg_1" class="" fill-opacity="1" stroke-opacity="1"/><path d="M425.2 457.1 C424.5 458.1 423.5 459.2 422.4 459.4 C414.1 460.9 405.9 463.7 397.4 460.4 C394.3 459.2 391.1 458.0 392.1 453.8 C393.0 450.0 396.5 448.6 401.0 449.8 C409.0 452.2 417.0 454.5 425.2 457.1 " fill="#9ca890" stroke="#9ca890" id="svg_2" class="" fill-opacity="1" stroke-opacity="1"/><path d="M226.2 1098.6 C224.9 1104.2 217.4 1110.3 212.6 1109.3 C211.4 1109.0 208.7 1108.3 210.5 1105.3 C214.0 1099.5 217.0 1093.4 220.5 1087.5 C221.4 1085.9 222.4 1084.4 224.2 1087.7 C226.1 1091.3 227.7 1094.4 226.2 1098.6 " fill="#9ca890" stroke="#9ca890" id="svg_3" class="" fill-opacity="1" stroke-opacity="1"/><path d="M283.0 702.4 C282.0 703.4 282.5 706.4 279.7 703.9 C274.0 698.5 271.3 692.2 272.2 684.6 C272.4 682.5 274.9 680.6 276.3 678.6 C277.6 679.9 279.1 681.1 279.9 682.6 C283.0 688.7 285.6 694.9 283.0 702.4 " fill="#9ca890" stroke="#9ca890" id="svg_4" class="" fill-opacity="1" stroke-opacity="1"/><path d="M482.7 1000.6 C481.8 994.4 486.9 992.8 490.7 991.6 C495.4 989.9 500.7 990.0 505.8 989.5 C506.5 989.4 507.3 990.5 508.0 991.0 C507.3 991.8 506.8 993.0 506.0 993.3 C498.3 995.9 490.7 998.4 482.7 1000.6 " fill="#9ca890" stroke="#9ca890" id="svg_5" class="" fill-opacity="1" stroke-opacity="1"/><path d="M195.2 739.6 C198.5 735.7 201.4 731.8 204.7 728.3 C206.8 726.0 208.9 725.6 210.6 729.4 C213.2 735.1 212.3 738.6 206.6 741.4 C205.0 742.2 203.4 743.3 201.8 744.1 C196.5 746.8 195.0 745.9 195.2 739.6 " fill="#9ca890" stroke="#9ca890" id="svg_6" class="" fill-opacity="1" stroke-opacity="1"/><path d="M691.7 738.1 C692.9 735.3 694.0 732.7 694.8 730.1 C695.9 726.7 698.0 724.5 701.6 725.6 C705.7 726.8 707.0 730.6 705.8 734.1 C704.0 739.4 700.6 743.7 695.3 746.4 C691.8 748.2 691.2 746.3 691.0 743.7 C691.0 741.9 691.3 740.2 691.7 738.1 " fill="#9ca890" stroke="#9ca890" id="svg_7" class="" fill-opacity="1" stroke-opacity="1"/><path d="M441.0 561.4 C440.2 564.0 439.4 566.2 438.6 568.3 C437.0 566.2 435.1 564.2 434.1 561.9 C431.0 554.2 432.7 546.5 434.2 538.8 C434.4 537.9 435.4 537.2 436.0 536.4 C436.7 537.2 437.6 537.9 438.0 538.8 C441.1 545.9 441.3 553.4 441.0 561.4 " fill="#9ca890" stroke="#9ca890" id="svg_8" class="" fill-opacity="1" stroke-opacity="1"/><path d="M51.0 681.4 C47.1 684.0 45.8 681.4 45.1 678.8 C44.9 678.0 46.2 676.2 47.2 675.8 C53.0 673.6 57.1 669.6 60.0 664.3 C62.1 660.5 64.6 662.7 66.8 664.0 C67.1 664.2 66.5 667.3 65.5 668.3 C61.0 672.8 56.2 677.0 51.0 681.4 " fill="#9ca890" stroke="#9ca890" id="svg_9" class="" fill-opacity="1" stroke-opacity="1"/><path d="M515.7 126.1 C518.1 123.7 519.9 122.2 523.6 123.2 C527.3 124.2 531.5 123.2 535.5 123.5 C537.0 123.6 538.5 124.6 540.0 125.2 C538.8 125.9 537.7 126.8 536.4 127.5 C530.9 130.4 524.8 130.7 518.8 130.4 C515.3 130.2 514.3 128.7 515.7 126.1 " fill="#9ca890" stroke="#9ca890" id="svg_10" class="" fill-opacity="1" stroke-opacity="1"/><path d="M837.7 918.1 C830.7 908.3 833.1 897.5 834.9 886.7 C836.0 880.6 836.3 874.3 837.0 868.1 C837.1 867.2 837.2 866.2 837.6 865.4 C838.1 864.3 839.0 863.5 839.7 862.6 C840.1 863.5 840.5 864.5 841.0 865.5 C844.8 873.5 846.5 882.1 845.9 890.8 C845.2 900.3 842.1 909.3 837.7 918.1 " fill="#9ca890" stroke="#9ca890" id="svg_11" class="" fill-opacity="1" stroke-opacity="1"/><path d="M153.7 849.1 C152.8 849.7 152.1 850.3 151.4 850.4 C134.3 850.7 117.1 851.3 99.9 851.2 C96.8 851.2 93.7 848.7 90.6 847.3 C90.6 847.3 90.9 845.8 91.2 845.8 C92.5 845.5 93.8 845.4 95.1 845.4 C111.4 845.4 127.7 845.5 144.0 845.3 C147.9 845.3 151.2 846.0 153.7 849.1 " fill="#9ca890" stroke="#9ca890" id="svg_12" class="" fill-opacity="1" stroke-opacity="1"/><path d="M145.2 208.6 C144.7 209.7 144.5 210.6 144.2 211.4 C143.8 210.7 143.1 210.0 143.1 209.3 C143.0 197.1 142.8 184.8 143.2 172.5 C143.3 170.5 146.4 168.7 148.2 166.7 C148.6 167.3 149.5 167.9 149.5 168.5 C149.7 174.4 150.5 180.5 149.8 186.3 C149.0 193.8 147.0 201.0 145.2 208.6 " fill="#9ca890" stroke="#9ca890" id="svg_13" class="" fill-opacity="1" stroke-opacity="1"/><path d="M410.0 119.4 C413.6 118.2 422.2 120.0 424.3 122.4 C424.5 122.7 424.2 123.8 423.8 124.0 C419.6 125.9 415.5 128.4 411.1 129.2 C405.7 130.1 399.9 130.2 395.0 126.4 C394.4 125.9 393.7 125.5 393.1 125.0 C393.8 124.5 394.4 123.7 395.3 123.4 C400.0 122.0 404.7 120.7 410.0 119.4 " fill="#9ca890" stroke="#9ca890" id="svg_14" class="" fill-opacity="1" stroke-opacity="1"/><path d="M786.0 212.4 C787.3 206.0 788.6 200.0 790.0 194.1 C790.7 191.5 791.8 189.1 792.6 186.5 C793.1 189.0 794.0 191.5 793.9 193.9 C793.4 204.5 792.7 215.0 791.9 225.5 C791.8 226.8 790.3 228.1 789.5 229.4 C788.7 228.2 787.3 227.2 787.1 225.9 C786.5 221.6 786.3 217.2 786.0 212.4 " fill="#9ca890" stroke="#9ca890" id="svg_15" class="" fill-opacity="1" stroke-opacity="1"/><path d="M91.7 548.6 C93.5 555.3 95.3 561.8 91.8 568.1 C90.7 570.0 89.0 571.6 87.6 573.3 C86.7 571.1 85.3 568.9 85.1 566.6 C84.7 561.6 85.0 556.6 85.0 551.6 C85.0 551.0 84.9 550.3 85.0 549.6 C85.6 545.9 83.2 541.6 87.3 538.6 C88.7 541.9 90.1 545.1 91.7 548.6 " fill="#9ca890" stroke="#9ca890" id="svg_16" class="" fill-opacity="1" stroke-opacity="1"/><path d="M37.0 781.4 C32.7 771.4 33.4 761.6 35.0 751.7 C35.2 750.9 35.7 750.1 36.0 749.4 C36.5 750.1 37.3 750.7 37.5 751.5 C41.3 762.1 43.7 772.8 41.0 784.1 C40.8 784.8 40.2 785.4 39.8 786.1 C39.2 785.5 38.5 785.1 38.0 784.4 C37.5 783.7 37.3 782.8 37.0 781.4 " fill="#9ca890" stroke="#9ca890" id="svg_17" class="" fill-opacity="1" stroke-opacity="1"/><path d="M535.0 1071.4 C525.0 1067.9 516.8 1062.7 511.6 1053.6 C511.0 1052.5 509.7 1051.7 508.9 1050.7 C508.0 1049.7 507.2 1048.6 506.3 1047.6 C507.9 1048.0 509.8 1048.1 511.0 1049.0 C519.3 1054.8 527.5 1060.7 535.6 1066.7 C536.8 1067.5 537.2 1069.3 538.0 1070.6 C537.2 1070.9 536.3 1071.1 535.0 1071.4 " fill="#9ca890" stroke="#9ca890" id="svg_18" class="" fill-opacity="1" stroke-opacity="1"/><path d="M613.7 418.6 C613.3 410.6 613.1 402.9 613.1 395.1 C613.0 394.3 613.8 393.5 614.3 392.6 C614.5 393.4 614.9 394.1 615.0 394.8 C616.0 402.4 617.0 410.0 618.0 417.6 C618.0 417.9 618.1 418.2 618.0 418.6 C617.5 420.8 617.0 423.1 616.5 425.4 C615.6 423.2 614.8 421.1 613.7 418.6 " fill="#9ca890" stroke="#9ca890" id="svg_19" class="" fill-opacity="1" stroke-opacity="1"/><path d="M610.0 542.4 C609.7 527.7 609.3 513.6 609.1 499.4 C609.0 497.8 609.9 496.1 610.4 494.5 C611.6 495.7 613.2 496.8 613.9 498.3 C614.9 500.5 615.8 503.0 615.9 505.4 C616.4 521.5 616.9 537.7 616.8 553.9 C616.8 556.5 613.7 559.2 612.1 561.8 C611.4 561.0 610.1 560.2 610.1 559.4 C609.9 553.9 610.0 548.4 610.0 542.4 " fill="#9ca890" stroke="#9ca890" id="svg_20" class="" fill-opacity="1" stroke-opacity="1"/><path d="M319.0 510.4 C319.0 502.9 318.9 495.9 319.1 488.9 C319.1 487.4 320.2 485.9 320.8 484.4 C321.5 486.0 322.8 487.5 322.9 489.1 C323.4 498.6 323.7 508.1 324.0 517.6 C324.3 526.8 324.9 535.9 324.8 545.1 C324.8 547.9 322.9 550.6 321.9 553.4 C320.9 550.7 319.2 548.0 319.1 545.3 C318.8 533.8 319.0 522.4 319.0 510.4 " fill="#9ca890" stroke="#9ca890" id="svg_21" class="" fill-opacity="1" stroke-opacity="1"/><path d="M380.0 507.4 C380.0 520.7 380.0 533.5 380.0 546.3 C380.0 547.6 380.1 549.1 379.6 550.2 C378.9 551.4 377.6 552.3 376.6 553.3 C376.0 552.1 375.1 550.9 375.1 549.6 C375.0 529.5 374.9 509.3 375.1 489.2 C375.2 486.6 377.1 484.0 378.2 481.4 C378.8 483.9 379.8 486.4 379.9 488.9 C380.2 494.9 380.0 500.9 380.0 507.4 " fill="#9ca890" stroke="#9ca890" id="svg_22" class="" fill-opacity="1" stroke-opacity="1"/><path d="M792.0 515.4 C790.7 523.0 789.4 530.1 788.0 537.1 C787.7 538.3 786.9 539.3 786.4 540.3 C786.3 539.4 786.0 538.4 786.0 537.5 C785.7 526.0 785.0 514.5 785.2 503.1 C785.2 499.4 787.4 495.8 788.8 492.2 C789.0 491.5 789.8 491.0 790.4 490.4 C790.9 491.1 791.6 491.8 792.0 492.7 C795.5 500.1 793.7 507.5 792.0 515.4 " fill="#9ca890" stroke="#9ca890" id="svg_23" class="" fill-opacity="1" stroke-opacity="1"/><path d="M675.0 352.4 C674.7 354.3 674.7 355.8 673.9 356.9 C672.7 358.9 671.0 360.5 669.4 362.3 C668.3 360.0 666.2 357.6 666.2 355.3 C666.3 349.4 667.0 343.5 668.1 337.7 C669.4 330.7 671.3 323.8 673.0 316.8 C673.2 316.0 673.9 315.2 674.3 314.4 C674.6 315.3 675.0 316.1 675.0 317.0 C675.0 328.6 675.0 340.3 675.0 352.4 " fill="#9ca890" stroke="#9ca890" id="svg_24" class="" fill-opacity="1" stroke-opacity="1"/><path d="M459.7 123.1 C469.3 120.4 478.5 117.8 487.8 115.4 C491.4 114.5 495.2 113.9 498.9 113.5 C500.2 113.3 501.5 114.3 502.8 114.7 C502.1 115.9 501.5 117.1 500.7 118.2 C497.0 122.9 491.3 122.3 486.4 123.3 C478.9 124.8 471.3 125.5 463.7 126.3 C462.0 126.5 460.1 125.6 458.3 125.2 C458.7 124.6 459.1 124.0 459.7 123.1 " fill="#9ca890" stroke="#9ca890" id="svg_25" class="" fill-opacity="1" stroke-opacity="1"/><path d="M813.0 685.4 C813.3 680.4 813.5 675.8 814.1 671.4 C814.3 670.1 815.9 668.9 816.8 667.7 C818.8 669.4 823.7 667.2 823.0 672.3 C822.0 679.3 820.8 686.3 819.6 693.3 C819.1 696.2 818.6 699.2 818.0 702.1 C817.7 703.2 817.0 704.3 816.5 705.4 C815.6 704.2 814.2 703.1 814.1 701.9 C813.5 696.6 813.3 691.2 813.0 685.4 " fill="#9ca890" stroke="#9ca890" id="svg_26" class="" fill-opacity="1" stroke-opacity="1"/><path d="M442.0 498.4 C440.3 505.2 438.7 511.5 437.0 517.7 C436.7 518.6 435.9 519.4 435.4 520.3 C435.1 519.4 434.7 518.5 434.7 517.6 C434.4 510.6 433.6 503.7 434.2 496.8 C434.6 491.0 436.6 485.3 438.1 479.5 C438.4 478.4 439.5 477.4 440.2 476.4 C440.8 477.6 441.9 478.8 441.9 480.0 C442.1 485.9 442.0 491.9 442.0 498.4 " fill="#9ca890" stroke="#9ca890" id="svg_27" class="" fill-opacity="1" stroke-opacity="1"/><path d="M732.0 523.4 C732.0 524.7 732.3 525.7 731.9 526.4 C730.9 528.4 729.7 530.4 728.5 532.4 C728.0 530.4 727.1 528.5 727.1 526.5 C726.9 515.7 727.0 504.9 727.0 494.1 C727.0 493.5 726.8 492.7 727.0 492.2 C728.2 490.3 729.5 488.4 730.7 486.6 C731.1 488.6 731.9 490.5 731.9 492.5 C732.1 502.6 732.0 512.8 732.0 523.4 " fill="#9ca890" stroke="#9ca890" id="svg_28" class="" fill-opacity="1" stroke-opacity="1"/><path d="M496.0 192.4 C496.0 189.9 495.8 187.9 496.1 185.9 C496.2 184.7 496.9 183.6 497.4 182.5 C498.1 183.5 499.1 184.4 499.5 185.4 C503.6 195.9 502.4 206.6 500.6 217.3 C500.0 220.7 499.6 224.2 498.9 227.6 C498.8 228.3 497.9 228.7 497.4 229.3 C497.3 228.7 497.0 228.1 497.0 227.5 C496.7 215.9 496.3 204.4 496.0 192.4 " fill="#9ca890" stroke="#9ca890" id="svg_29" class="" fill-opacity="1" stroke-opacity="1"/><path d="M871.0 1079.4 C870.7 1087.4 870.4 1094.9 870.0 1102.4 C869.9 1103.1 869.5 1103.7 869.2 1104.4 C868.8 1103.9 868.2 1103.4 868.0 1102.8 C867.2 1100.6 866.1 1098.4 866.1 1096.2 C865.9 1086.7 865.9 1077.2 866.1 1067.7 C866.1 1065.6 867.0 1063.5 867.5 1061.4 C868.7 1063.6 870.5 1065.6 870.8 1068.0 C871.4 1071.5 871.0 1075.2 871.0 1079.4 " fill="#9ca890" stroke="#9ca890" id="svg_30" class="" fill-opacity="1" stroke-opacity="1"/><path d="M869.7 614.1 C869.3 618.2 869.4 621.9 868.9 625.7 C868.7 627.2 867.5 628.7 866.6 630.1 C866.5 630.2 864.1 629.3 864.1 628.9 C864.4 621.7 864.9 614.6 865.5 607.5 C865.8 604.0 866.4 600.6 867.1 597.1 C867.2 596.5 868.1 596.0 868.6 595.5 C868.7 596.1 868.9 596.7 869.0 597.3 C869.3 602.8 869.7 608.4 869.7 614.1 " fill="#9ca890" stroke="#9ca890" id="svg_31" class="" fill-opacity="1" stroke-opacity="1"/><path d="M560.0 403.4 C559.0 409.5 558.0 415.0 557.0 420.6 C556.9 421.2 556.7 421.8 556.5 422.4 C556.4 421.8 556.0 421.2 556.0 420.7 C556.0 411.0 556.0 401.4 556.0 391.8 C556.0 391.1 555.8 390.3 556.1 389.9 C557.2 388.3 558.4 386.9 559.6 385.5 C560.1 387.1 561.0 388.7 560.9 390.4 C560.8 394.5 560.3 398.7 560.0 403.4 " fill="#9ca890" stroke="#9ca890" id="svg_32" class="" fill-opacity="1" stroke-opacity="1"/><path d="M870.0 261.4 C870.0 269.2 870.0 276.5 870.0 283.8 C870.0 284.3 869.8 284.8 869.7 285.2 C869.5 284.8 869.1 284.3 869.0 283.9 C868.3 275.7 867.7 267.4 867.0 259.3 C866.5 254.8 864.7 250.2 868.0 246.0 C868.3 245.6 868.4 245.0 868.6 244.5 C868.8 245.1 869.3 245.6 869.3 246.2 C869.6 251.1 869.8 256.0 870.0 261.4 " fill="#9ca890" stroke="#9ca890" id="svg_33" class="" fill-opacity="1" stroke-opacity="1"/><path d="M363.0 1081.4 C365.0 1089.9 367.5 1097.8 368.9 1105.9 C370.2 1114.2 370.8 1122.6 370.8 1131.0 C370.9 1136.5 370.1 1142.0 365.0 1146.1 C360.2 1149.9 353.6 1148.7 353.2 1142.7 C352.5 1131.7 352.2 1120.5 353.2 1109.6 C354.2 1099.1 357.0 1088.9 359.0 1078.6 C359.3 1077.4 360.1 1076.4 360.6 1075.4 C361.4 1076.6 362.3 1077.7 363.0 1078.9 C363.2 1079.4 363.0 1080.2 363.0 1081.4 " fill="#9ca890" stroke="#9ca890" id="svg_34" class="" fill-opacity="1" stroke-opacity="1"/><path d="M552.0 491.4 C553.9 489.1 555.7 487.3 557.6 485.5 C558.1 488.0 558.9 490.4 558.9 492.9 C559.1 503.9 559.5 514.9 558.9 525.8 C558.1 539.3 556.3 552.7 555.0 566.1 C554.9 566.6 554.3 567.0 554.0 567.4 C553.6 567.0 553.1 566.5 553.0 566.1 C552.3 562.7 551.1 559.3 551.1 555.9 C550.9 541.9 550.9 527.9 551.0 514.0 C551.1 506.6 551.7 499.2 552.0 491.4 " fill="#9ca890" stroke="#9ca890" id="svg_35" class="" fill-opacity="1" stroke-opacity="1"/><path d="M88.2 204.6 C87.9 206.0 87.8 207.1 87.7 208.2 C87.1 207.4 86.4 206.7 85.9 205.8 C80.5 195.0 78.5 183.9 81.8 172.1 C83.3 167.0 84.5 161.9 86.1 156.9 C86.5 155.6 87.7 154.5 88.5 153.4 C89.0 154.7 89.6 156.0 90.0 157.3 C91.7 164.2 94.8 171.2 94.6 178.1 C94.5 185.9 91.4 193.6 89.5 201.3 C89.3 202.4 88.9 203.4 88.2 204.6 " fill="#9ca890" stroke="#9ca890" id="svg_36" class="" fill-opacity="1" stroke-opacity="1"/><path d="M266.0 504.4 C266.0 520.9 266.5 536.9 265.8 552.9 C265.4 560.8 266.1 569.2 262.0 576.7 C261.3 578.0 260.2 579.0 259.3 580.2 C258.9 578.9 258.1 577.6 258.1 576.2 C257.6 566.9 256.5 557.5 257.2 548.2 C258.1 536.0 260.3 523.9 262.0 511.7 C262.4 509.0 262.6 506.3 263.1 503.7 C263.2 502.9 264.1 502.2 264.6 501.5 C265.1 502.3 265.5 503.1 266.0 504.4 " fill="#9ca890" stroke="#9ca890" id="svg_37" class="" fill-opacity="1" stroke-opacity="1"/><path d="M554.2 1017.6 C548.2 1025.2 540.3 1022.0 533.1 1021.9 C530.7 1021.8 528.4 1020.6 526.0 1019.9 C527.9 1018.4 529.8 1016.9 531.6 1015.3 C534.3 1013.0 537.0 1010.6 539.6 1008.2 C541.2 1006.8 542.4 1005.4 539.3 1004.1 C538.3 1003.7 537.6 1002.6 536.8 1001.7 C535.9 1000.7 535.2 999.6 534.4 998.5 C536.1 997.5 537.8 995.7 539.6 995.5 C548.3 994.7 560.7 1007.4 554.2 1017.6 " fill="#9ca890" stroke="#9ca890" id="svg_38" class="" fill-opacity="1" stroke-opacity="1"/><path d="M208.0 548.4 C208.0 557.9 208.1 566.9 207.9 575.9 C207.9 578.0 206.8 580.1 206.3 582.2 C205.5 580.0 204.1 577.8 204.1 575.6 C203.9 549.8 203.9 524.0 204.1 498.2 C204.1 495.9 205.4 493.7 206.0 491.4 C206.7 493.4 207.5 495.3 208.0 497.3 C208.5 499.5 208.9 501.7 209.0 503.9 C209.1 514.5 209.1 525.2 209.0 535.8 C208.9 539.9 208.3 543.9 208.0 548.4 " fill="#9ca890" stroke="#9ca890" id="svg_39" class="" fill-opacity="1" stroke-opacity="1"/><path d="M150.0 301.4 C150.0 307.3 150.0 312.7 150.0 318.0 C150.0 318.2 150.1 318.4 150.0 318.5 C148.6 320.8 147.1 323.0 145.7 325.2 C144.1 322.8 141.3 320.4 141.3 318.0 C141.4 304.4 142.1 290.8 142.7 277.3 C142.7 276.4 143.3 275.5 143.7 274.6 C144.1 275.6 144.8 276.5 145.0 277.5 C146.4 284.3 147.7 291.1 149.0 297.8 C149.2 298.9 149.7 299.9 150.0 301.4 " fill="#9ca890" stroke="#9ca890" id="svg_40" class="" fill-opacity="1" stroke-opacity="1"/><path d="M385.0 233.4 C384.2 235.4 383.4 236.9 382.5 238.4 C382.0 236.9 381.1 235.5 381.1 234.1 C381.0 220.9 381.1 207.8 381.0 194.6 C380.8 183.1 380.3 171.6 380.0 160.1 C380.0 159.3 379.7 158.3 380.1 157.6 C380.8 156.1 381.8 154.8 382.7 153.4 C383.5 154.8 384.8 156.1 384.9 157.5 C385.1 163.3 385.0 169.2 385.0 175.0 C385.0 194.3 385.0 213.6 385.0 233.4 " fill="#9ca890" stroke="#9ca890" id="svg_41" class="" fill-opacity="1" stroke-opacity="1"/><path d="M671.0 414.4 C671.0 404.7 670.9 395.6 671.1 386.4 C671.1 385.1 671.9 383.8 672.4 382.5 C673.7 383.0 675.1 383.3 676.1 384.1 C682.4 389.0 681.1 395.7 679.9 402.1 C679.0 407.0 677.3 411.7 676.0 416.5 C675.8 417.2 675.7 418.1 675.2 418.6 C674.4 419.6 673.4 420.4 672.4 421.3 C671.9 420.0 671.4 418.7 671.0 417.4 C670.8 416.6 671.0 415.7 671.0 414.4 " fill="#9ca890" stroke="#9ca890" id="svg_42" class="" fill-opacity="1" stroke-opacity="1"/><path d="M610.0 258.4 C611.3 247.8 612.7 237.7 614.0 227.7 C614.3 225.1 614.6 222.6 615.0 220.1 C615.1 219.5 615.4 219.0 615.6 218.5 C615.7 219.1 616.0 219.7 616.0 220.3 C616.7 233.9 617.4 247.6 617.9 261.3 C618.0 262.8 617.5 264.4 617.0 265.9 C616.3 267.7 615.4 269.5 614.6 271.3 C613.4 269.5 611.8 267.9 611.1 265.9 C610.4 263.7 610.3 261.2 610.0 258.4 " fill="#9ca890" stroke="#9ca890" id="svg_43" class="" fill-opacity="1" stroke-opacity="1"/><path d="M85.0 505.4 C83.0 496.7 83.8 488.7 86.0 480.7 C86.3 479.9 87.0 479.2 87.5 478.4 C88.0 479.0 88.7 479.6 89.0 480.3 C91.0 484.8 93.4 489.2 94.7 493.9 C95.3 495.9 93.6 498.5 93.0 500.9 C92.0 505.0 91.1 509.1 89.9 513.1 C89.7 514.0 88.6 514.6 87.9 515.4 C87.6 514.6 87.2 513.8 87.0 513.0 C86.3 510.7 85.7 508.3 85.0 505.4 " fill="#9ca890" stroke="#9ca890" id="svg_44" class="" fill-opacity="1" stroke-opacity="1"/><path d="M786.0 341.4 C785.7 333.9 784.9 326.9 785.1 319.9 C785.3 311.5 786.3 303.2 787.0 294.8 C787.0 294.4 787.3 293.9 787.4 293.5 C787.6 294.0 788.0 294.5 788.1 295.0 C788.4 296.4 788.9 297.7 789.0 299.1 C789.4 305.1 790.2 311.2 789.9 317.1 C789.3 325.5 787.8 333.8 786.7 342.2 C786.7 342.2 786.4 342.3 786.4 342.2 C786.2 342.2 786.1 342.0 786.0 341.4 " fill="#9ca890" stroke="#9ca890" id="svg_45" class="" fill-opacity="1" stroke-opacity="1"/><path d="M141.2 1144.6 C136.3 1149.6 135.8 1149.6 130.9 1144.8 C123.0 1137.0 121.6 1127.6 123.8 1117.0 C124.7 1112.5 124.3 1107.7 125.1 1103.0 C126.5 1093.7 128.1 1084.4 130.1 1075.2 C130.8 1072.1 133.2 1069.3 134.9 1066.4 C136.7 1069.0 139.0 1071.4 140.2 1074.3 C141.9 1078.4 143.3 1082.8 143.9 1087.2 C144.7 1093.5 144.7 1099.9 145.0 1106.2 C145.4 1114.6 145.6 1122.9 146.0 1131.3 C146.2 1136.3 144.6 1140.6 141.2 1144.6 " fill="#9ca890" stroke="#9ca890" id="svg_46" class="" fill-opacity="1" stroke-opacity="1"/><path d="M266.2 858.6 C261.1 867.8 256.2 876.8 251.2 885.7 C249.3 889.1 247.2 892.4 245.2 895.7 C244.9 896.2 244.7 896.8 244.5 897.4 C244.0 896.8 243.1 896.1 243.1 895.5 C242.0 878.0 231.8 864.2 224.4 849.3 C223.7 847.8 222.0 845.9 225.8 846.4 C236.2 847.5 246.6 848.4 257.0 849.4 C259.7 849.7 262.5 850.0 265.2 850.1 C270.8 850.3 269.9 853.2 268.0 856.5 C267.6 857.2 267.0 857.8 266.2 858.6 " fill="#9ca890" stroke="#9ca890" id="svg_47" class="" fill-opacity="1" stroke-opacity="1"/><path d="M142.0 413.4 C141.0 396.0 140.5 379.0 138.7 362.2 C138.0 355.3 138.2 349.0 141.1 342.9 C141.7 341.5 143.4 340.6 144.5 339.4 C145.0 340.6 145.8 341.6 146.0 342.8 C147.0 351.6 148.3 360.3 148.9 369.1 C149.6 379.7 149.7 390.4 150.0 401.1 C150.1 406.9 150.3 412.6 149.9 418.3 C149.7 420.4 148.0 422.5 146.9 424.5 C146.8 424.7 145.2 424.4 145.1 424.1 C144.0 420.7 143.0 417.3 142.0 413.4 " fill="#9ca890" stroke="#9ca890" id="svg_48" class="" fill-opacity="1" stroke-opacity="1"/><path d="M13.0 1074.4 C13.0 1079.9 13.1 1084.9 12.9 1089.9 C12.9 1091.0 12.1 1092.2 11.6 1093.3 C11.2 1092.3 10.8 1091.4 10.5 1090.4 C10.3 1089.5 10.0 1088.6 10.0 1087.6 C9.7 1059.3 9.2 1030.9 9.1 1002.6 C9.1 995.0 10.3 987.5 11.0 979.9 C11.1 979.4 11.8 978.9 12.2 978.4 C12.5 978.9 12.9 979.4 13.0 979.9 C13.1 981.1 13.0 982.3 13.0 983.4 C13.0 1013.6 13.0 1043.7 13.0 1074.4 " fill="#9ca890" stroke="#9ca890" id="svg_49" class="" fill-opacity="1" stroke-opacity="1"/><path d="M495.0 514.4 C495.0 504.7 494.9 495.6 495.1 486.5 C495.1 485.1 495.9 483.8 496.4 482.5 C497.2 483.6 498.4 484.6 498.7 485.7 C499.4 488.3 499.9 491.1 499.9 493.7 C500.1 509.9 500.1 526.0 500.0 542.1 C499.9 548.0 499.4 553.8 499.0 559.7 C498.9 560.5 498.2 561.3 497.8 562.1 C497.2 561.4 496.3 560.7 496.1 559.9 C495.5 557.9 495.1 555.8 495.0 553.8 C495.0 540.8 495.0 527.9 495.0 514.4 " fill="#9ca890" stroke="#9ca890" id="svg_50" class="" fill-opacity="1" stroke-opacity="1"/><path d="M551.0 331.4 C551.0 321.9 550.8 312.9 551.1 303.9 C551.2 300.4 552.3 296.8 553.0 293.3 C553.2 292.6 554.0 292.0 554.5 291.4 C555.0 292.2 555.7 292.9 555.9 293.8 C556.2 294.7 556.0 295.7 556.0 296.7 C556.0 315.9 556.0 335.0 556.0 354.1 C556.0 355.5 555.3 357.0 555.0 358.4 C554.0 356.9 552.4 355.5 552.1 353.9 C551.4 349.3 551.3 344.6 551.0 339.9 C550.9 337.2 551.0 334.6 551.0 331.4 " fill="#9ca890" stroke="#9ca890" id="svg_51" class="" fill-opacity="1" stroke-opacity="1"/><path d="M199.0 256.4 C199.0 233.1 198.9 210.2 199.1 187.4 C199.1 185.1 200.2 182.5 201.6 180.5 C202.6 179.1 204.9 178.5 206.6 177.5 C207.4 179.5 208.9 181.6 208.9 183.6 C208.8 192.4 208.3 201.3 208.0 210.1 C207.6 221.7 207.4 233.2 207.0 244.7 C206.7 253.6 206.5 262.5 206.0 271.3 C205.5 278.2 204.8 285.1 203.9 292.0 C203.7 293.5 202.3 294.9 201.5 296.4 C201.0 294.9 200.1 293.5 200.1 292.0 C199.6 280.3 199.3 268.6 199.0 256.4 " fill="#9ca890" stroke="#9ca890" id="svg_52" class="" fill-opacity="1" stroke-opacity="1"/><path d="M152.0 538.4 C152.0 547.7 151.5 556.6 152.2 565.3 C152.6 571.4 148.9 575.0 146.4 579.5 C146.1 579.9 145.3 580.1 144.8 580.4 C144.5 579.9 144.1 579.4 144.0 578.9 C143.6 576.2 143.1 573.5 143.0 570.8 C143.0 545.9 142.9 520.9 143.1 496.0 C143.1 492.1 144.3 488.2 145.0 484.4 C145.2 483.7 146.0 483.1 146.4 482.5 C147.0 483.0 147.8 483.5 148.0 484.2 C149.1 487.9 150.7 491.6 150.9 495.4 C151.5 509.6 151.7 523.7 152.0 538.4 " fill="#9ca890" stroke="#9ca890" id="svg_53" class="" fill-opacity="1" stroke-opacity="1"/><path d="M270.0 365.4 C270.3 369.9 270.9 373.9 270.9 378.0 C270.9 382.6 270.4 387.3 269.9 392.0 C269.8 393.5 269.0 394.9 268.5 396.4 C267.8 395.0 267.0 393.7 266.4 392.3 C262.1 380.8 257.8 369.4 257.9 356.9 C257.9 350.1 256.1 343.4 256.1 336.7 C256.2 329.0 257.1 321.3 258.2 313.6 C258.4 312.0 261.2 310.8 262.8 309.4 C263.5 311.0 264.8 312.5 264.9 314.1 C266.1 326.6 266.9 339.2 268.0 351.7 C268.4 356.2 269.3 360.5 270.0 365.4 " fill="#9ca890" stroke="#9ca890" id="svg_54" class="" fill-opacity="1" stroke-opacity="1"/><path d="M671.0 180.4 C671.3 174.9 671.5 169.8 672.1 164.8 C672.2 163.6 673.7 162.5 674.5 161.4 C675.0 162.7 675.8 164.0 675.9 165.3 C676.7 175.3 677.4 185.4 678.0 195.4 C678.4 203.7 679.3 212.1 678.9 220.4 C678.0 235.9 676.3 251.3 675.0 266.7 C674.8 269.2 675.1 271.7 674.9 274.2 C674.9 274.9 673.9 275.6 673.4 276.3 C672.9 275.6 672.2 275.0 672.1 274.3 C671.6 271.7 671.1 269.0 671.0 266.3 C671.0 237.8 671.0 209.3 671.0 180.4 " fill="#9ca890" stroke="#9ca890" id="svg_55" class="" fill-opacity="1" stroke-opacity="1"/><path d="M876.0 159.4 C876.8 171.6 874.7 182.9 872.0 194.2 C871.8 194.8 871.4 195.3 871.1 195.8 C870.1 197.6 869.2 199.4 868.3 201.2 C867.8 199.2 867.1 197.2 867.0 195.2 C866.6 183.8 866.2 172.5 866.0 161.2 C865.9 153.3 865.8 145.5 866.1 137.7 C866.2 134.1 867.3 130.6 868.0 127.0 C868.2 126.5 868.9 126.1 869.3 125.6 C869.7 126.1 870.2 126.7 870.4 127.3 C871.9 132.6 873.9 137.9 874.9 143.4 C875.8 148.4 875.7 153.7 876.0 159.4 " fill="#9ca890" stroke="#9ca890" id="svg_56" class="" fill-opacity="1" stroke-opacity="1"/><path d="M266.0 253.4 C265.7 263.1 265.4 272.3 264.9 281.5 C264.9 282.5 264.0 283.4 263.5 284.4 C263.3 283.5 263.0 282.6 262.8 281.7 C262.2 278.5 261.5 275.2 261.0 272.0 C260.8 270.3 261.0 268.6 261.0 267.0 C260.7 246.8 259.8 226.6 260.2 206.4 C260.5 192.8 262.7 179.2 264.0 165.6 C264.1 164.9 264.4 164.2 264.6 163.5 C264.7 164.3 264.9 165.0 265.0 165.8 C265.0 166.0 265.0 166.2 265.0 166.3 C265.3 195.2 265.7 224.0 266.0 253.4 " fill="#9ca890" stroke="#9ca890" id="svg_57" class="" fill-opacity="1" stroke-opacity="1"/><path d="M846.0 419.4 C844.7 423.7 843.4 427.5 842.0 431.2 C841.7 431.9 841.1 432.5 840.7 433.2 C840.1 432.6 839.2 432.0 839.1 431.3 C838.6 429.2 838.3 427.1 838.0 425.0 C837.9 423.9 838.0 422.7 838.0 421.5 C838.3 405.4 838.6 389.2 839.0 373.0 C839.1 370.1 839.7 367.3 840.0 364.4 C840.1 363.4 840.2 362.5 840.4 361.5 C840.9 362.4 841.8 363.2 841.9 364.1 C842.7 369.3 843.6 374.5 843.9 379.7 C844.8 392.8 845.3 405.8 846.0 419.4 " fill="#9ca890" stroke="#9ca890" id="svg_58" class="" fill-opacity="1" stroke-opacity="1"/><path d="M560.2 160.1 C560.3 164.2 560.4 168.0 559.9 171.8 C559.1 178.5 558.0 185.2 557.0 192.0 C556.0 199.4 555.0 206.8 554.0 214.2 C553.9 214.6 553.3 215.0 552.9 215.4 C552.6 214.6 552.0 213.8 552.0 213.0 C552.0 203.2 552.0 193.3 552.0 183.5 C552.0 177.0 551.8 170.4 552.1 163.9 C552.2 161.1 553.2 158.4 554.1 155.8 C554.4 154.8 555.7 153.6 556.5 153.6 C557.4 153.6 558.4 154.9 558.9 155.8 C559.5 157.1 559.7 158.5 560.2 160.1 " fill="#9ca890" stroke="#9ca890" id="svg_59" class="" fill-opacity="1" stroke-opacity="1"/><path d="M875.7 446.1 C874.7 451.4 873.8 456.4 873.0 461.3 C873.0 461.7 873.1 462.1 873.0 462.3 C871.9 464.0 870.7 465.7 869.5 467.4 C868.7 465.7 867.3 464.2 867.1 462.4 C866.2 455.9 865.4 449.4 865.1 442.8 C864.2 426.1 864.2 409.4 862.7 392.7 C862.2 386.9 862.1 381.2 862.1 375.5 C862.1 371.3 862.6 367.1 863.1 362.9 C863.1 362.1 863.9 361.3 864.4 360.5 C864.8 361.1 865.1 361.8 865.5 362.4 C873.3 373.1 874.8 385.6 875.0 398.4 C875.3 414.2 875.7 430.1 875.7 446.1 " fill="#9ca890" stroke="#9ca890" id="svg_60" class="" fill-opacity="1" stroke-opacity="1"/><path d="M90.0 303.4 C90.0 317.4 90.1 330.9 89.9 344.3 C89.8 347.9 88.7 351.4 88.0 355.0 C87.9 355.5 87.4 355.9 87.1 356.4 C86.7 355.8 86.1 355.3 86.0 354.7 C85.0 348.0 83.6 341.3 83.1 334.5 C82.4 325.3 82.2 316.1 82.0 307.0 C81.9 293.3 81.5 279.5 82.1 265.9 C82.8 251.2 84.6 236.7 86.1 222.1 C86.1 221.2 87.1 220.4 87.6 219.5 C88.1 220.3 88.8 221.1 88.9 221.9 C89.4 225.0 89.9 228.0 90.0 231.0 C90.0 255.0 90.0 278.9 90.0 303.4 " fill="#9ca890" stroke="#9ca890" id="svg_61" class="" fill-opacity="1" stroke-opacity="1"/><path d="M595.0 1066.4 C598.7 1075.5 602.2 1076.0 613.5 1071.5 C622.0 1068.1 628.8 1067.2 635.1 1075.2 C637.3 1078.0 638.1 1081.9 639.4 1085.4 C639.5 1085.8 638.4 1087.0 637.7 1087.1 C631.5 1087.4 625.2 1087.7 619.0 1087.8 C617.9 1087.9 616.8 1087.5 615.7 1087.4 C606.3 1087.0 596.9 1087.0 587.6 1086.3 C578.3 1085.7 569.1 1084.5 559.9 1083.3 C557.8 1083.0 556.0 1081.3 554.0 1080.3 C555.1 1078.4 555.8 1076.2 557.3 1074.7 C566.6 1065.2 576.1 1055.8 585.5 1046.3 C587.5 1044.3 588.5 1043.1 589.5 1047.2 C590.9 1053.5 593.1 1059.7 595.0 1066.4 " fill="#9ca890" stroke="#9ca890" id="svg_62" class="" fill-opacity="1" stroke-opacity="1"/><path d="M318.0 309.4 C317.3 295.3 316.7 281.8 316.0 268.2 C315.7 262.7 315.4 257.2 315.0 251.7 C314.7 248.0 313.9 244.3 314.1 240.6 C314.9 220.5 315.9 200.4 317.1 180.4 C317.4 174.4 318.6 168.4 319.5 162.4 C319.7 161.4 320.2 160.4 320.5 159.4 C321.4 160.4 322.7 161.3 322.9 162.4 C323.5 165.6 324.0 168.8 324.0 172.0 C324.0 217.5 324.0 262.9 324.0 308.4 C324.0 311.3 323.7 314.2 322.9 317.0 C322.2 319.5 320.6 321.9 319.4 324.3 C319.3 322.0 319.2 319.7 319.0 317.5 C318.7 314.9 318.3 312.4 318.0 309.4 " fill="#9ca890" stroke="#9ca890" id="svg_63" class="" fill-opacity="1" stroke-opacity="1"/><path d="M834.7 21.1 C837.5 9.5 841.7 2.7 853.3 0.4 C854.4 0.2 855.9 0.0 856.8 0.5 C858.3 1.3 859.5 2.7 860.9 3.8 C859.9 4.5 859.0 5.3 858.0 5.9 C850.0 10.4 847.5 18.6 845.1 26.5 C841.7 37.9 840.4 49.8 841.0 61.8 C841.4 70.3 841.7 78.8 842.0 87.4 C842.0 88.4 841.5 89.4 841.2 90.4 C840.4 89.7 839.0 89.3 838.6 88.4 C837.5 86.0 836.3 83.5 836.1 81.0 C835.2 72.0 834.6 62.9 834.0 53.8 C833.6 46.8 833.1 39.8 833.1 32.8 C833.1 29.0 834.0 25.2 834.7 21.1 " fill="#9ca890" stroke="#9ca890" id="svg_64" class="" fill-opacity="1" stroke-opacity="1"/><path d="M866.0 1001.4 C866.0 976.2 866.0 951.6 866.0 926.9 C866.0 925.8 866.5 924.6 866.7 923.4 C867.5 924.4 868.5 925.4 869.0 926.5 C870.7 930.8 872.0 935.3 874.1 939.4 C878.1 947.8 874.5 956.1 874.4 964.4 C874.4 965.6 874.1 966.7 874.0 967.8 C873.7 978.1 873.6 988.5 872.9 998.8 C872.3 1007.6 871.0 1016.3 870.0 1025.1 C869.9 1025.8 869.4 1026.5 869.0 1027.1 C868.5 1027.9 867.9 1028.6 867.4 1029.3 C867.3 1028.5 867.2 1027.7 867.0 1027.0 C866.7 1025.4 866.1 1023.9 866.0 1022.4 C865.9 1015.6 866.0 1008.7 866.0 1001.4 " fill="#9ca890" stroke="#9ca890" id="svg_65" class="" fill-opacity="1" stroke-opacity="1"/><path d="M491.0 373.4 C490.7 360.9 489.7 348.8 490.2 336.9 C490.8 321.2 492.6 305.7 494.0 290.1 C494.6 283.2 495.3 276.3 496.0 269.4 C496.1 268.8 496.2 268.2 496.3 267.6 C496.6 268.2 496.9 268.8 497.0 269.5 C497.7 276.8 498.7 284.2 498.9 291.6 C499.8 315.1 500.2 338.7 501.1 362.2 C501.4 371.8 502.4 381.3 503.0 390.8 C503.4 399.5 504.6 408.3 503.7 416.9 C503.0 424.8 500.0 432.6 498.0 440.4 C497.8 441.1 497.1 441.7 496.6 442.3 C496.4 441.4 496.1 440.6 496.0 439.7 C495.0 426.5 494.0 413.3 493.0 400.0 C492.3 391.3 491.7 382.6 491.0 373.4 " fill="#9ca890" stroke="#9ca890" id="svg_66" class="" fill-opacity="1" stroke-opacity="1"/><path d="M379.0 405.4 C378.3 390.4 377.6 375.8 377.0 361.3 C376.6 352.0 376.3 342.6 376.0 333.3 C376.0 332.4 375.9 331.6 376.1 330.8 C376.4 330.0 377.0 329.2 377.5 328.4 C378.0 329.2 378.8 330.0 378.9 330.8 C379.3 334.6 379.8 338.5 380.0 342.3 C380.4 350.0 380.6 357.7 381.0 365.4 C381.7 379.4 382.3 393.4 383.0 407.5 C383.3 414.7 383.7 421.8 384.0 429.0 C384.0 430.1 383.8 431.3 383.5 432.3 C383.3 433.1 382.9 433.7 382.5 434.4 C382.1 433.7 381.7 433.1 381.5 432.3 C380.9 430.4 380.2 428.4 380.1 426.4 C379.6 419.6 379.3 412.7 379.0 405.4 " fill="#9ca890" stroke="#9ca890" id="svg_67" class="" fill-opacity="1" stroke-opacity="1"/><path d="M727.0 229.4 C727.0 218.2 726.9 207.6 727.0 196.9 C727.1 190.4 727.1 183.7 728.2 177.4 C728.9 173.9 732.0 171.0 734.1 167.9 C734.3 167.6 734.9 167.5 735.4 167.4 C735.6 168.1 736.0 168.9 736.0 169.6 C733.1 192.2 733.0 215.0 732.9 237.8 C732.8 272.0 732.1 306.2 732.1 340.4 C732.1 352.4 733.2 364.5 734.0 376.5 C734.5 383.9 736.3 391.4 735.8 398.7 C735.2 406.9 732.7 415.0 731.0 423.1 C730.9 423.5 730.7 424.0 730.5 424.4 C730.3 424.0 730.1 423.5 730.0 423.1 C729.3 417.0 728.2 411.0 728.1 404.9 C727.6 367.9 727.3 330.9 727.0 293.9 C726.9 272.5 727.0 251.2 727.0 229.4 " fill="#9ca890" stroke="#9ca890" id="svg_68" class="" fill-opacity="1" stroke-opacity="1"/><path d="M846.0 178.4 C845.7 201.4 845.4 223.9 845.0 246.4 C844.8 256.8 844.6 267.2 843.9 277.5 C843.2 290.6 842.2 303.7 840.9 316.7 C840.4 321.7 839.0 326.6 838.0 331.5 C837.8 332.2 837.0 332.8 836.5 333.4 C836.3 332.6 836.1 331.9 836.0 331.1 C835.3 327.6 834.1 324.0 834.1 320.5 C833.9 304.3 833.9 288.1 834.0 272.0 C834.2 256.0 834.6 239.9 835.0 223.9 C835.3 212.7 835.5 201.5 836.1 190.4 C836.8 175.3 837.8 160.2 839.1 145.1 C839.6 138.7 841.0 132.3 842.0 125.9 C842.1 125.4 842.5 125.0 842.7 124.6 C843.1 125.1 843.9 125.5 844.0 126.1 C845.0 132.2 846.7 138.2 846.8 144.3 C847.1 155.5 846.3 166.7 846.0 178.4 " fill="#9ca890" stroke="#9ca890" id="svg_69" class="" fill-opacity="1" stroke-opacity="1"/><path d="M5.0 870.4 C4.7 808.2 4.4 746.5 3.9 684.9 C3.8 670.8 2.7 656.7 2.0 642.7 C1.7 635.3 1.4 628.0 1.0 620.6 C0.6 613.0 2.0 605.7 5.0 598.8 C5.5 597.6 6.3 596.5 7.0 595.4 C7.7 596.9 8.8 598.3 8.9 599.8 C9.4 610.1 9.7 620.5 10.0 630.9 C10.3 642.2 10.7 653.6 11.0 664.9 C11.3 675.5 11.9 686.0 12.0 696.5 C12.4 769.2 12.8 841.9 12.9 914.5 C12.9 922.8 11.0 931.0 10.0 939.3 C9.9 939.6 9.6 939.9 9.4 940.3 C9.2 939.8 9.0 939.4 9.0 938.9 C8.7 929.9 7.1 921.5 1.5 913.9 C0.0 911.9 1.6 907.5 2.0 904.1 C2.6 899.2 3.5 894.4 4.0 889.5 C4.5 883.3 4.7 877.1 5.0 870.4 " fill="#9ca890" stroke="#9ca890" id="svg_70" class="" fill-opacity="1" stroke-opacity="1"/><path d="M314.0 797.4 C313.3 806.9 312.9 816.0 311.8 825.0 C311.5 828.2 309.3 831.3 308.0 834.4 C307.9 834.5 307.1 834.4 307.0 834.3 C306.3 831.3 305.1 828.2 305.1 825.2 C304.6 792.7 304.3 760.2 304.0 727.7 C303.9 716.7 303.6 705.7 304.1 694.7 C304.5 686.3 306.0 677.9 307.0 669.5 C308.1 661.1 304.7 654.5 295.4 655.3 C290.9 655.7 286.4 655.4 281.9 655.4 C280.9 655.4 279.7 655.7 278.9 655.3 C277.3 654.5 275.8 653.2 274.2 652.1 C275.7 651.6 277.0 650.7 278.5 650.4 C285.9 649.0 293.4 647.6 300.9 646.4 C303.5 646.0 307.2 645.1 308.8 646.4 C310.5 647.8 310.5 651.5 311.0 654.3 C311.8 659.3 312.9 664.4 312.9 669.4 C313.4 711.9 313.7 754.4 314.0 797.4 " fill="#9ca890" stroke="#9ca890" id="svg_71" class="" fill-opacity="1" stroke-opacity="1"/><path d="M436.0 364.4 C435.9 366.3 435.8 367.8 435.6 369.2 C435.4 367.8 435.1 366.3 435.0 364.8 C434.6 352.5 434.4 340.1 434.0 327.7 C433.7 318.5 433.2 309.4 433.0 300.2 C432.6 280.0 432.0 259.8 432.1 239.6 C432.2 224.2 433.2 208.8 434.0 193.4 C434.5 184.5 435.3 175.7 436.0 166.8 C436.3 162.9 436.6 159.0 437.0 155.2 C437.1 154.6 437.7 154.0 438.0 153.4 C438.3 154.0 438.8 154.6 439.0 155.2 C442.6 167.0 443.0 178.9 441.0 191.0 C440.8 192.3 441.0 193.7 441.0 195.0 C441.0 209.0 441.1 223.0 441.0 237.0 C440.8 256.2 440.4 275.4 440.0 294.6 C439.8 303.6 439.4 312.6 439.0 321.6 C438.4 334.4 437.7 347.1 437.0 359.8 C436.9 361.2 436.3 362.5 436.0 364.4 " fill="#9ca890" stroke="#9ca890" id="svg_72" class="" fill-opacity="1" stroke-opacity="1"/><path d="M665.0 1007.4 C660.1 1010.3 655.4 1009.9 650.8 1008.3 C647.8 1007.3 646.0 1005.5 645.8 1001.6 C645.5 994.7 642.3 988.8 637.7 983.5 C629.2 973.9 618.0 967.8 607.6 960.7 C594.5 951.7 580.6 943.8 567.3 935.1 C549.1 923.3 531.0 911.5 513.1 899.3 C505.3 894.0 497.6 888.2 495.4 878.2 C495.0 876.4 495.4 874.4 495.4 872.5 C497.1 873.1 499.0 873.5 500.5 874.5 C529.4 894.3 558.2 914.5 587.3 934.0 C600.2 942.7 613.8 950.4 627.3 958.1 C635.1 962.5 642.3 967.5 647.1 975.1 C649.2 978.6 650.6 982.7 651.7 986.7 C653.2 992.1 657.2 994.0 661.9 994.3 C672.9 994.9 684.0 995.1 695.0 995.4 C696.6 995.5 698.2 995.6 699.8 995.7 C698.5 996.6 697.2 997.7 695.7 998.2 C685.6 1001.3 675.6 1004.3 665.0 1007.4 " fill="#9ca890" stroke="#9ca890" id="svg_73" class="" fill-opacity="1" stroke-opacity="1"/><path d="M174.0 1175.4 C220.6 1175.4 266.8 1175.3 312.9 1175.4 C327.3 1175.5 341.6 1176.1 356.0 1176.4 C356.6 1176.4 357.2 1176.6 357.9 1176.7 C357.2 1177.0 356.6 1177.3 355.9 1177.4 C343.2 1179.7 330.4 1181.6 317.8 1184.3 C311.0 1185.7 304.6 1188.9 297.8 1190.2 C292.6 1191.2 287.0 1190.6 281.7 1190.3 C278.4 1190.1 275.2 1188.7 272.0 1188.5 C263.6 1187.9 255.3 1187.8 246.9 1187.4 C234.9 1186.8 222.8 1186.0 210.8 1185.4 C195.1 1184.7 179.3 1183.9 163.6 1183.5 C156.9 1183.3 150.2 1184.3 143.5 1184.3 C136.3 1184.3 129.1 1183.1 122.0 1183.5 C110.5 1184.3 99.1 1186.1 87.6 1187.1 C85.8 1187.3 83.3 1185.9 82.2 1184.5 C80.7 1182.6 80.1 1179.9 79.8 1177.5 C79.7 1176.6 81.5 1174.5 82.5 1174.5 C95.4 1174.3 108.4 1174.3 121.4 1174.4 C138.8 1174.6 156.1 1175.1 174.0 1175.4 " fill="#9ca890" stroke="#9ca890" id="svg_74" class="" fill-opacity="1" stroke-opacity="1"/><path d="M50.7 456.1 C57.0 452.1 63.6 451.3 70.6 451.3 C121.5 451.5 172.3 451.4 223.1 451.3 C233.6 451.3 244.2 450.8 254.7 450.4 C266.8 449.8 278.9 449.6 290.8 448.2 C297.9 447.4 305.4 448.1 312.1 444.0 C316.5 441.4 317.9 437.4 318.8 433.3 C320.2 427.6 320.5 421.6 321.0 415.7 C321.5 409.0 321.6 402.3 322.0 395.6 C322.1 394.9 322.7 394.1 323.1 393.4 C323.4 394.0 323.8 394.6 324.0 395.3 C326.5 405.9 326.0 416.4 324.2 427.1 C323.2 433.1 323.5 439.5 324.2 445.6 C324.6 449.1 327.7 451.5 331.8 451.4 C337.2 451.3 342.6 450.8 347.8 451.5 C355.2 452.6 362.4 454.7 369.7 456.4 C370.5 456.6 371.2 457.5 371.9 458.0 C371.1 458.1 370.4 458.3 369.6 458.4 C361.2 458.7 352.9 459.0 344.5 459.4 C330.3 460.0 316.1 460.8 301.8 461.4 C284.8 462.1 267.7 463.0 250.7 463.3 C217.1 463.9 183.6 464.3 150.1 464.3 C135.2 464.3 120.3 463.1 105.4 462.4 C94.5 461.8 83.6 461.1 72.8 460.4 C65.4 459.8 58.0 459.1 50.6 458.3 C50.0 458.3 49.5 457.6 49.0 457.2 C49.5 456.9 50.0 456.7 50.7 456.1 " fill="#9ca890" stroke="#9ca890" id="svg_75" class="" fill-opacity="1" stroke-opacity="1"/><path d="M15.0 46.4 C15.0 55.7 15.0 64.6 15.0 73.4 C14.7 126.6 14.4 179.7 14.0 232.9 C13.8 250.3 13.5 267.6 13.0 285.0 C12.5 299.7 11.8 314.4 11.0 329.1 C10.2 341.9 9.1 354.6 8.0 367.4 C7.5 372.1 6.7 376.8 6.0 381.5 C5.9 382.1 5.7 382.7 5.6 383.3 C5.4 382.6 5.0 381.9 5.0 381.2 C5.0 365.4 5.0 349.5 5.0 333.7 C5.0 320.9 5.1 308.0 5.0 295.2 C4.7 269.0 4.3 242.9 4.0 216.7 C3.7 193.8 3.3 171.0 3.0 148.1 C2.7 126.3 2.4 104.4 2.0 82.6 C1.8 71.7 0.6 60.8 1.2 50.0 C2.0 34.8 5.2 20.1 15.7 8.1 C20.1 3.1 28.0 3.1 31.8 8.7 C37.3 16.8 39.2 25.3 37.3 35.3 C35.9 42.7 37.1 50.6 37.0 58.2 C36.8 67.1 36.3 76.0 36.0 84.8 C36.0 85.3 35.6 85.8 35.4 86.2 C35.2 85.8 35.1 85.3 35.0 84.9 C33.7 72.3 32.4 59.7 31.0 47.1 C29.8 37.1 28.3 27.2 27.0 17.2 C26.9 16.6 26.3 15.5 26.1 15.5 C25.2 15.6 23.9 15.8 23.5 16.5 C20.9 21.0 17.7 25.4 16.2 30.4 C14.8 35.3 15.3 40.7 15.0 46.4 " fill="#9ca890" stroke="#9ca890" id="svg_76" class="" fill-opacity="1" stroke-opacity="1"/><path d="M198.0 1100.4 C197.7 1110.3 198.3 1119.8 196.7 1128.9 C195.5 1135.4 192.1 1141.8 188.2 1147.3 C185.1 1151.7 179.9 1154.8 175.5 1158.3 C174.5 1159.1 172.5 1159.7 171.5 1159.2 C170.6 1158.7 170.1 1156.7 170.1 1155.4 C169.9 1145.9 169.5 1136.4 170.1 1127.0 C171.1 1112.4 172.7 1097.8 180.0 1084.6 C185.8 1074.0 193.9 1065.6 204.3 1059.3 C216.5 1052.0 229.7 1049.1 243.8 1048.3 C264.4 1047.1 282.8 1053.7 298.6 1065.9 C313.8 1077.6 323.9 1093.6 327.9 1112.6 C330.9 1126.8 328.3 1140.8 323.0 1154.1 C321.3 1158.4 319.9 1158.6 316.6 1155.5 C309.0 1148.3 302.5 1140.6 299.9 1130.0 C297.8 1121.8 298.2 1114.1 300.6 1106.3 C302.4 1100.6 305.0 1094.6 301.8 1088.8 C297.3 1080.7 288.6 1076.5 279.0 1078.9 C275.8 1079.7 272.5 1080.1 269.2 1080.7 C271.5 1082.8 274.2 1084.6 276.1 1087.1 C280.3 1092.6 283.5 1098.8 283.0 1106.2 C282.9 1107.2 282.2 1108.2 281.7 1109.1 C280.8 1108.7 279.6 1108.5 279.0 1107.8 C274.6 1102.9 269.8 1098.2 266.1 1092.8 C261.7 1086.2 255.4 1082.9 248.3 1081.6 C239.2 1079.9 229.8 1079.5 220.6 1078.4 C216.6 1077.9 212.5 1077.7 209.0 1076.2 C203.8 1074.0 201.9 1076.9 201.1 1080.7 C199.7 1087.0 199.0 1093.5 198.0 1100.4 " fill="#9ca890" stroke="#9ca890" id="svg_77" class="" fill-opacity="1" stroke-opacity="1"/><path d="M188.0 129.4 C177.2 129.4 166.8 129.3 156.5 129.4 C136.6 129.7 116.8 130.0 96.9 130.4 C85.7 130.6 74.5 131.0 63.3 131.4 C57.6 131.7 51.7 132.5 47.6 136.6 C45.1 139.2 43.4 143.5 43.2 147.1 C42.4 162.6 42.2 178.2 42.0 193.7 C41.6 231.7 41.2 269.8 41.0 307.8 C40.6 380.7 40.4 453.5 40.0 526.4 C39.9 539.6 39.5 552.8 38.9 566.0 C38.8 569.7 37.7 573.4 36.9 577.1 C36.8 577.9 35.9 578.6 35.4 579.3 C34.9 578.5 34.1 577.7 34.1 576.9 C33.9 572.6 34.1 568.2 34.0 563.9 C33.7 541.4 33.4 518.8 33.0 496.3 C32.7 480.3 32.1 464.3 32.0 448.2 C31.6 383.7 31.4 319.2 31.0 254.7 C30.8 231.8 30.2 208.9 30.1 186.1 C30.0 175.7 30.2 165.3 31.2 155.0 C31.9 147.0 31.8 138.7 37.2 131.5 C41.7 125.6 47.5 122.6 54.4 122.5 C80.1 121.9 105.8 121.8 131.5 121.4 C147.7 121.1 163.9 120.7 180.1 120.4 C197.1 120.1 214.1 119.5 231.2 119.5 C246.8 119.5 262.5 120.0 278.2 120.4 C288.9 120.7 299.7 120.7 310.3 121.5 C323.8 122.5 337.2 124.1 350.7 125.4 C351.1 125.5 351.5 125.7 352.0 125.9 C351.6 126.2 351.4 126.8 351.0 126.9 C349.9 127.2 348.8 127.4 347.7 127.4 C309.6 127.7 271.6 128.0 233.6 128.4 C218.6 128.6 203.5 129.1 188.0 129.4 " fill="#9ca890" stroke="#9ca890" id="svg_78" class="" fill-opacity="1" stroke-opacity="1"/><path d="M244.0 646.4 C247.1 647.4 249.6 648.5 252.3 649.4 C255.5 650.4 256.3 652.3 255.5 655.4 C252.1 668.0 248.3 680.5 247.9 693.8 C247.7 702.5 246.4 711.2 246.1 720.0 C245.2 740.9 244.9 761.8 243.9 782.6 C243.5 791.6 242.2 800.5 240.9 809.4 C240.3 813.2 238.0 816.5 233.8 817.4 C228.4 818.5 223.0 820.0 217.5 820.3 C198.0 821.2 178.4 822.3 158.9 822.2 C148.4 822.1 138.0 819.7 127.5 818.4 C121.6 817.7 115.7 816.8 109.8 816.5 C99.0 815.9 91.9 810.1 90.2 800.0 C88.8 791.1 89.2 781.9 89.0 772.9 C88.6 750.0 88.8 727.2 87.8 704.3 C87.2 690.7 86.5 676.9 79.2 664.5 C75.5 658.3 71.0 653.0 65.6 648.8 C63.0 646.8 64.9 646.8 65.9 646.5 C67.5 645.9 69.2 645.4 70.9 645.4 C100.6 645.4 130.3 645.3 159.9 645.4 C187.8 645.6 215.6 646.1 244.0 646.4 M174.0 716.9 C173.7 722.6 173.2 728.3 173.0 734.0 C172.6 748.5 172.0 763.0 172.2 777.5 C172.2 784.3 172.4 791.7 177.5 797.2 C180.3 800.4 184.5 802.5 186.7 805.9 C188.8 809.3 190.6 808.5 193.4 807.6 C201.5 804.8 209.8 802.4 217.9 799.3 C222.0 797.7 226.7 796.1 227.1 790.2 C227.4 785.7 228.6 781.4 228.9 777.0 C229.8 764.9 230.5 752.9 231.0 740.8 C231.5 727.2 231.6 713.5 232.1 699.8 C232.2 695.9 233.3 692.0 233.8 688.1 C235.4 675.8 229.7 665.6 215.4 668.7 C206.9 670.6 199.0 670.9 190.8 667.8 C179.5 663.6 177.2 668.4 176.2 677.3 C174.7 690.1 174.7 703.0 174.0 716.9 " fill="#9ca890" stroke="#9ca890" id="svg_79" class="" fill-opacity="1" stroke-opacity="1"/><path d="M409.0 601.4 C545.8 601.4 682.1 601.4 818.5 601.3 C824.1 601.3 829.3 600.0 833.6 595.5 C837.2 591.7 837.5 587.3 837.9 582.8 C838.3 578.0 837.9 573.1 838.0 568.3 C838.3 557.1 838.5 545.9 839.0 534.7 C839.6 522.5 840.3 510.3 841.0 498.0 C841.3 491.7 841.6 485.3 842.0 479.0 C842.4 472.0 838.5 468.3 832.2 466.5 C828.7 465.5 824.9 465.5 821.2 465.4 C799.8 465.0 778.4 464.9 757.1 464.3 C740.2 463.9 723.3 463.1 706.4 462.4 C698.7 462.1 691.0 461.7 683.3 461.4 C669.0 460.7 654.6 460.1 640.2 459.4 C638.6 459.3 637.1 458.7 635.6 458.4 C634.1 458.1 632.6 458.0 631.1 457.8 C632.6 457.6 634.0 457.4 635.5 457.4 C651.0 457.1 666.6 456.9 682.1 456.4 C697.8 455.9 713.5 455.1 729.2 454.4 C737.6 454.0 746.0 453.8 754.3 453.4 C768.7 452.7 783.1 452.0 797.5 451.4 C805.9 451.0 814.2 450.4 822.6 450.5 C838.4 450.5 846.0 458.2 846.0 473.7 C846.0 486.9 846.1 500.0 846.0 513.2 C845.8 527.1 845.4 540.9 845.0 554.8 C844.7 564.1 844.6 573.5 843.9 582.9 C843.2 594.0 842.2 605.1 840.9 616.1 C840.1 622.8 831.3 627.1 823.5 625.4 C817.0 624.1 810.3 622.9 803.7 622.5 C789.5 621.5 775.3 621.1 761.1 620.4 C754.2 620.1 747.3 619.5 740.5 619.4 C685.1 619.0 629.8 618.8 574.4 618.4 C535.0 618.1 495.7 617.7 456.3 617.4 C395.5 617.0 334.6 616.8 273.8 616.4 C228.7 616.1 183.7 615.8 138.7 615.4 C113.3 615.1 88.0 614.7 62.6 614.4 C55.6 614.3 49.5 616.4 43.4 620.1 C37.8 623.6 37.6 629.4 35.0 634.2 C34.7 634.8 34.6 635.6 34.4 636.3 C33.8 635.7 33.1 635.2 32.7 634.5 C32.0 633.2 31.0 631.7 31.1 630.3 C31.4 623.7 29.8 617.0 32.9 610.5 C35.2 605.6 41.1 600.3 46.3 600.4 C53.5 600.6 60.8 601.3 68.0 601.4 C181.5 601.4 295.0 601.4 409.0 601.4 " fill="#9ca890" stroke="#9ca890" id="svg_80" class="" fill-opacity="1" stroke-opacity="1"/><path d="M649.2 1105.1 C647.2 1100.0 648.4 1092.3 652.4 1089.8 C654.5 1088.5 658.1 1088.9 660.9 1089.5 C675.0 1092.3 689.0 1095.7 703.2 1098.3 C710.9 1099.7 718.9 1100.1 726.8 1100.3 C748.0 1100.9 769.2 1101.1 790.4 1101.4 C797.2 1101.5 798.9 1099.6 799.0 1093.0 C799.3 1083.1 799.6 1073.3 800.0 1063.4 C800.6 1052.0 801.5 1040.6 801.9 1029.2 C802.0 1026.1 800.9 1022.7 799.7 1019.7 C797.6 1014.8 794.7 1013.8 790.1 1016.5 C785.9 1019.0 782.9 1018.3 779.8 1014.8 C774.6 1008.9 767.6 1006.6 759.9 1006.4 C750.3 1006.1 740.8 1006.0 731.3 1005.2 C728.1 1005.0 725.1 1002.7 721.9 1001.4 C722.2 1001.0 722.3 1000.4 722.6 1000.3 C725.0 999.6 727.4 998.6 729.8 998.5 C741.7 998.0 753.5 997.3 765.4 997.5 C773.3 997.7 781.3 999.2 789.1 1000.4 C800.9 1002.4 811.1 991.5 808.2 980.0 C807.3 976.2 807.3 972.0 807.0 968.0 C806.6 963.2 806.1 958.3 806.0 953.5 C805.9 927.1 806.1 900.8 806.0 874.5 C805.9 858.1 805.0 841.8 805.1 825.4 C805.2 812.7 806.3 800.0 807.0 787.3 C807.6 778.2 808.3 769.1 809.0 760.1 C809.2 757.7 809.6 755.4 810.0 753.0 C810.2 751.8 810.5 750.6 810.7 749.4 C811.5 750.6 812.5 751.7 813.0 753.0 C815.8 761.2 817.3 769.5 817.1 778.3 C816.7 791.4 817.1 804.6 817.0 817.8 C816.7 842.3 816.3 866.8 816.0 891.3 C815.6 930.8 815.2 970.4 815.1 1009.9 C815.0 1024.1 815.5 1038.3 816.0 1052.5 C816.5 1064.0 817.0 1075.6 818.1 1087.1 C818.8 1093.4 819.4 1100.0 824.0 1105.1 C824.3 1105.4 825.7 1105.4 825.9 1105.0 C830.4 1098.6 832.3 1091.1 832.9 1083.5 C834.0 1070.6 833.9 1057.7 835.2 1044.8 C835.9 1037.4 838.3 1030.2 840.0 1022.9 C840.1 1022.4 840.5 1022.0 840.7 1021.6 C840.8 1022.0 841.0 1022.5 841.0 1023.0 C841.0 1029.3 840.9 1035.6 841.0 1042.0 C841.3 1067.6 841.7 1093.3 841.9 1119.0 C842.0 1124.5 841.3 1130.1 841.0 1135.6 C840.9 1138.7 839.9 1137.4 838.4 1136.4 C833.0 1132.9 827.8 1129.0 822.0 1126.6 C816.3 1124.3 809.9 1122.8 803.7 1122.6 C779.4 1121.5 755.0 1121.1 730.6 1120.4 C720.4 1120.1 710.2 1119.7 700.0 1119.4 C689.1 1119.1 678.3 1119.0 667.4 1118.3 C659.0 1117.7 653.2 1112.8 649.2 1105.1 " fill="#9ca890" stroke="#9ca890" id="svg_81" class="" fill-opacity="1" stroke-opacity="1"/><path d="M555.0 658.4 C553.5 658.7 552.4 659.3 551.4 659.4 C530.9 659.7 510.4 660.0 489.8 660.4 C485.0 660.5 480.1 661.4 475.3 661.3 C464.5 661.0 453.6 660.8 444.5 653.5 C444.3 653.3 443.7 653.5 443.6 653.4 C442.4 651.6 441.2 649.7 440.0 647.9 C441.9 647.4 443.9 646.9 445.8 646.4 C446.0 646.4 446.2 646.4 446.3 646.4 C474.5 646.1 502.7 645.8 530.9 645.4 C543.4 645.2 556.0 644.7 568.5 644.4 C580.2 644.1 591.9 643.6 603.6 643.4 C632.3 643.0 660.9 642.7 689.6 642.4 C705.4 642.3 721.1 642.3 736.8 642.4 C746.0 642.5 755.2 643.0 764.4 643.4 C776.4 644.0 788.5 644.7 800.5 645.4 C805.6 645.7 810.6 646.0 815.6 646.4 C816.4 646.5 817.2 646.7 817.9 646.8 C817.2 647.3 816.5 648.0 815.6 648.2 C809.8 649.3 803.9 650.7 797.9 651.3 C786.6 652.6 775.1 653.4 763.7 654.4 C760.0 654.7 756.2 654.7 752.6 655.5 C746.6 656.8 739.3 666.3 739.0 673.0 C738.6 682.9 738.2 692.7 738.0 702.6 C737.6 728.8 737.4 755.0 737.0 781.2 C736.9 787.7 736.4 794.2 736.0 800.7 C735.9 801.6 735.6 802.5 735.4 803.4 C734.6 802.6 733.3 801.8 733.1 800.9 C731.3 793.8 729.6 786.6 728.0 779.4 C725.5 767.9 722.6 756.5 722.9 744.5 C723.1 736.5 722.0 728.5 722.1 720.4 C722.1 708.9 721.9 697.3 723.2 685.9 C724.9 670.8 713.4 662.2 700.0 661.1 C692.4 660.5 685.3 660.7 678.1 663.4 C669.9 666.5 668.8 671.9 674.8 676.8 C677.2 678.7 679.2 681.0 681.2 683.1 C685.5 687.6 684.8 691.8 679.9 695.4 C674.4 699.5 667.7 702.6 666.4 710.4 C666.4 710.7 666.0 711.0 666.0 711.3 C666.2 726.0 662.4 741.0 669.1 755.2 C671.2 759.8 674.1 764.1 676.6 768.5 C677.3 769.7 678.1 770.8 678.9 772.0 C677.8 772.1 676.7 772.3 675.6 772.4 C667.8 772.9 660.5 779.3 660.1 786.9 C659.9 792.9 662.8 800.3 671.4 803.6 C680.0 807.0 687.8 805.2 696.2 803.9 C706.4 802.3 716.8 798.8 726.9 804.5 C728.8 805.5 731.5 807.7 731.4 809.2 C731.2 812.6 731.5 816.7 725.1 816.6 C707.7 816.3 690.4 817.2 673.0 817.4 C651.0 817.5 629.0 817.5 607.0 817.3 C600.9 817.3 594.6 817.6 589.1 813.4 C582.8 808.6 578.5 802.7 578.0 794.4 C577.3 783.8 576.1 773.2 576.1 762.6 C576.2 748.0 577.2 733.5 578.0 718.9 C578.5 710.2 579.1 701.5 580.0 692.8 C581.2 682.1 582.6 671.5 584.0 660.9 C584.3 658.0 583.6 655.3 580.2 656.5 C572.1 659.5 563.7 657.9 555.0 658.4 " fill="#9ca890" stroke="#9ca890" id="svg_82" class="" fill-opacity="1" stroke-opacity="1"/></g></svg>